<?xml version="1.0" encoding="UTF-8" standalone="no"?>
<!-- Created with Inkscape (http://www.inkscape.org/) -->

<svg
   xmlns:dc="http://purl.org/dc/elements/1.1/"
   xmlns:cc="http://creativecommons.org/ns#"
   xmlns:rdf="http://www.w3.org/1999/02/22-rdf-syntax-ns#"
   xmlns:svg="http://www.w3.org/2000/svg"
   xmlns="http://www.w3.org/2000/svg"
   xmlns:sodipodi="http://sodipodi.sourceforge.net/DTD/sodipodi-0.dtd"
   xmlns:inkscape="http://www.inkscape.org/namespaces/inkscape"
   width="250"
   height="250"
   viewBox="0 0 66.145835 66.145835"
   version="1.1"
   id="svg8"
   sodipodi:docname="hive.svg"
   inkscape:version="0.92.4 (fd57863, 2020-04-02)"
   inkscape:export-filename="/home/amit/Documents/hive/repo/webs/hive.png"
   inkscape:export-xdpi="96"
   inkscape:export-ydpi="96">
  <defs
     id="defs2" />
  <sodipodi:namedview
     id="base"
     pagecolor="#ffffff"
     bordercolor="#666666"
     borderopacity="1.0"
     inkscape:pageopacity="0.0"
     inkscape:pageshadow="2"
     inkscape:zoom="0.994"
     inkscape:cx="230.88531"
     inkscape:cy="250"
     inkscape:document-units="px"
     inkscape:current-layer="g931"
     showgrid="false"
     units="px"
     inkscape:window-width="1366"
     inkscape:window-height="678"
     inkscape:window-x="0"
     inkscape:window-y="27"
     inkscape:window-maximized="1" />
  <metadata
     id="metadata5">
    <rdf:RDF>
      <cc:Work
         rdf:about="">
        <dc:format>image/svg+xml</dc:format>
        <dc:type
           rdf:resource="http://purl.org/dc/dcmitype/StillImage" />
        <dc:title></dc:title>
      </cc:Work>
    </rdf:RDF>
  </metadata>
  <g
     inkscape:label="Layer 1"
     inkscape:groupmode="layer"
     id="layer1"
     transform="translate(0,-230.85419)">
    <g
       id="g931"
       transform="rotate(17.136995,66.415787,229.74929)">
      <g
         id="g2205"
         transform="translate(-21.763627,42.532822)">
        <path
           sodipodi:type="star"
           style="fill:#ffffff;fill-opacity:1;stroke:#ffffff;stroke-width:10.83120823;stroke-miterlimit:4;stroke-dasharray:none"
           id="path846"
           sodipodi:sides="6"
           sodipodi:cx="-74.100601"
           sodipodi:cy="63.94165"
           sodipodi:r1="49.743385"
           sodipodi:r2="55.100243"
           sodipodi:arg1="0.50126426"
           sodipodi:arg2="0.73030559"
           inkscape:flatsided="false"
           inkscape:rounded="0"
           inkscape:randomized="0"
           d="m -30.476859,87.845071 -2.575683,12.853799 -39.937157,12.97376 -12.419562,4.19629 -31.204179,-28.099711 -9.84388,-8.657508 8.73298,-41.073471 2.57568,-12.853804 39.937157,-12.973755 12.419562,-4.196295 31.20418,28.099715 9.84388,8.657509 z"
           transform="matrix(0.0286088,0.11048495,-0.11048495,0.0286088,63.670526,230.1917)" />
        <path
           transform="matrix(0.03189845,0.11639747,-0.11639747,0.03189845,75.615008,223.22798)"
           d="m -30.476859,87.845071 -2.575683,12.853799 -39.937157,12.97376 -12.419562,4.19629 -31.204179,-28.099711 -9.84388,-8.657508 8.73298,-41.073471 2.57568,-12.853804 39.937157,-12.973755 12.419562,-4.196295 31.20418,28.099715 9.84388,8.657509 z"
           inkscape:randomized="0"
           inkscape:rounded="0"
           inkscape:flatsided="false"
           sodipodi:arg2="0.73030559"
           sodipodi:arg1="0.50126426"
           sodipodi:r2="55.100243"
           sodipodi:r1="49.743385"
           sodipodi:cy="63.94165"
           sodipodi:cx="-74.100601"
           sodipodi:sides="6"
           id="path848"
           style="fill:#ffffff;fill-opacity:1;stroke:#ffffff;stroke-width:10.83120823;stroke-miterlimit:4;stroke-dasharray:none"
           sodipodi:type="star" />
        <path
           transform="matrix(0.0286088,0.11048495,-0.11048495,0.0286088,76.075576,249.04706)"
           d="m -30.476859,87.845071 -2.575683,12.853799 -39.937157,12.97376 -12.419562,4.19629 -31.204179,-28.099711 -9.84388,-8.657508 8.73298,-41.073471 2.57568,-12.853804 39.937157,-12.973755 12.419562,-4.196295 31.20418,28.099715 9.84388,8.657509 z"
           inkscape:randomized="0"
           inkscape:rounded="0"
           inkscape:flatsided="false"
           sodipodi:arg2="0.73030559"
           sodipodi:arg1="0.50126426"
           sodipodi:r2="55.100243"
           sodipodi:r1="49.743385"
           sodipodi:cy="63.94165"
           sodipodi:cx="-74.100601"
           sodipodi:sides="6"
           id="path856"
           style="fill:#ffffff;fill-opacity:1;stroke:#ffffff;stroke-width:10.83120823;stroke-miterlimit:4;stroke-dasharray:none"
           sodipodi:type="star" />
        <path
           transform="matrix(0.0286088,0.11048495,-0.11048495,0.0286088,87.327212,242.16112)"
           d="m -30.476859,87.845071 -2.575683,12.853799 -39.937157,12.97376 -12.419562,4.19629 -31.204179,-28.099711 -9.84388,-8.657508 8.73298,-41.073471 2.57568,-12.853804 39.937157,-12.973755 12.419562,-4.196295 31.20418,28.099715 9.84388,8.657509 z"
           inkscape:randomized="0"
           inkscape:rounded="0"
           inkscape:flatsided="false"
           sodipodi:arg2="0.73030559"
           sodipodi:arg1="0.50126426"
           sodipodi:r2="55.100243"
           sodipodi:r1="49.743385"
           sodipodi:cy="63.94165"
           sodipodi:cx="-74.100601"
           sodipodi:sides="6"
           id="path858"
           style="fill:#ffffff;fill-opacity:1;stroke:#ffffff;stroke-width:10.83120823;stroke-miterlimit:4;stroke-dasharray:none"
           sodipodi:type="star" />
        <path
           sodipodi:type="star"
           style="fill:#ffffff;fill-opacity:1;stroke:#ffffff;stroke-width:10.83120823;stroke-miterlimit:4;stroke-dasharray:none"
           id="path850"
           sodipodi:sides="6"
           sodipodi:cx="-74.100601"
           sodipodi:cy="63.94165"
           sodipodi:r1="49.743385"
           sodipodi:r2="55.100243"
           sodipodi:arg1="0.50126426"
           sodipodi:arg2="0.73030559"
           inkscape:flatsided="false"
           inkscape:rounded="0"
           inkscape:randomized="0"
           d="m -30.476859,87.845071 -2.575683,12.853799 -39.937157,12.97376 -12.419562,4.19629 -31.204179,-28.099711 -9.84388,-8.657508 8.73298,-41.073471 2.57568,-12.853804 39.937157,-12.973755 12.419562,-4.196295 31.20418,28.099715 9.84388,8.657509 z"
           transform="matrix(0.0286088,0.11048495,-0.11048495,0.0286088,87.063994,229.14371)" />
        <path
           transform="matrix(0.0286088,0.11048495,-0.11048495,0.0286088,64.646288,242.95531)"
           d="m -30.476859,87.845071 -2.575683,12.853799 -39.937157,12.97376 -12.419562,4.19629 -31.204179,-28.099711 -9.84388,-8.657508 8.73298,-41.073471 2.57568,-12.853804 39.937157,-12.973755 12.419562,-4.196295 31.20418,28.099715 9.84388,8.657509 z"
           inkscape:randomized="0"
           inkscape:rounded="0"
           inkscape:flatsided="false"
           sodipodi:arg2="0.73030559"
           sodipodi:arg1="0.50126426"
           sodipodi:r2="55.100243"
           sodipodi:r1="49.743385"
           sodipodi:cy="63.94165"
           sodipodi:cx="-74.100601"
           sodipodi:sides="6"
           id="path860"
           style="fill:#ffffff;fill-opacity:1;stroke:#ffffff;stroke-width:10.83120823;stroke-miterlimit:4;stroke-dasharray:none"
           sodipodi:type="star" />
        <path
           transform="matrix(0.03020347,0.1100597,-0.1100597,0.03020347,86.258382,216.07003)"
           d="m -30.476859,87.845071 -2.575683,12.853799 -39.937157,12.97376 -12.419562,4.19629 -31.204179,-28.099711 -9.84388,-8.657508 8.73298,-41.073471 2.57568,-12.853804 39.937157,-12.973755 12.419562,-4.196295 31.20418,28.099715 9.84388,8.657509 z"
           inkscape:randomized="0"
           inkscape:rounded="0"
           inkscape:flatsided="false"
           sodipodi:arg2="0.73030559"
           sodipodi:arg1="0.50126426"
           sodipodi:r2="55.100243"
           sodipodi:r1="49.743385"
           sodipodi:cy="63.94165"
           sodipodi:cx="-74.100601"
           sodipodi:sides="6"
           id="path878"
           style="fill:#ffffff;fill-opacity:1;stroke:#ffffff;stroke-width:10.83120823;stroke-miterlimit:4;stroke-dasharray:none"
           sodipodi:type="star" />
        <path
           sodipodi:type="star"
           style="fill:#ffffff;fill-opacity:1;stroke:#ffffff;stroke-width:10.83120823;stroke-miterlimit:4;stroke-dasharray:none"
           id="path880"
           sodipodi:sides="6"
           sodipodi:cx="-74.100601"
           sodipodi:cy="63.94165"
           sodipodi:r1="49.743385"
           sodipodi:r2="55.100243"
           sodipodi:arg1="0.50126426"
           sodipodi:arg2="0.73030559"
           inkscape:flatsided="false"
           inkscape:rounded="0"
           inkscape:randomized="0"
           d="m -30.476859,87.845071 -2.575683,12.853799 -39.937157,12.97376 -12.419562,4.19629 -31.204179,-28.099711 -9.84388,-8.657508 8.73298,-41.073471 2.57568,-12.853804 39.937157,-12.973755 12.419562,-4.196295 31.20418,28.099715 9.84388,8.657509 z"
           transform="matrix(0.0286088,0.11048495,-0.11048495,0.0286088,87.604946,254.98657)" />
        <path
           sodipodi:type="star"
           style="fill:#ffffff;fill-opacity:1;stroke:#ffffff;stroke-width:10.83120823;stroke-miterlimit:4;stroke-dasharray:none"
           id="path882"
           sodipodi:sides="6"
           sodipodi:cx="-74.100601"
           sodipodi:cy="63.94165"
           sodipodi:r1="49.743385"
           sodipodi:r2="55.100243"
           sodipodi:arg1="0.50126426"
           sodipodi:arg2="0.73030559"
           inkscape:flatsided="false"
           inkscape:rounded="0"
           inkscape:randomized="0"
           d="m -30.476859,87.845071 -2.575683,12.853799 -39.937157,12.97376 -12.419562,4.19629 -31.204179,-28.099711 -9.84388,-8.657508 8.73298,-41.073471 2.57568,-12.853804 39.937157,-12.973755 12.419562,-4.196295 31.20418,28.099715 9.84388,8.657509 z"
           transform="matrix(0.0286088,0.11048495,-0.11048495,0.0286088,98.5133,235.47597)" />
        <path
           transform="matrix(0.02992394,0.11013603,-0.11013603,0.02992394,52.92903,237.18661)"
           d="m -30.476859,87.845071 -2.575683,12.853799 -39.937157,12.97376 -12.419562,4.19629 -31.204179,-28.099711 -9.84388,-8.657508 8.73298,-41.073471 2.57568,-12.853804 39.937157,-12.973755 12.419562,-4.196295 31.20418,28.099715 9.84388,8.657509 z"
           inkscape:randomized="0"
           inkscape:rounded="0"
           inkscape:flatsided="false"
           sodipodi:arg2="0.73030559"
           sodipodi:arg1="0.50126426"
           sodipodi:r2="55.100243"
           sodipodi:r1="49.743385"
           sodipodi:cy="63.94165"
           sodipodi:cx="-74.100601"
           sodipodi:sides="6"
           id="path884"
           style="fill:#ffffff;fill-opacity:1;stroke:#ffffff;stroke-width:10.83120823;stroke-miterlimit:4;stroke-dasharray:none"
           sodipodi:type="star" />
        <path
           sodipodi:type="star"
           style="fill:#ffffff;fill-opacity:1;stroke:#ffffff;stroke-width:10.83120823;stroke-miterlimit:4;stroke-dasharray:none"
           id="path886"
           sodipodi:sides="6"
           sodipodi:cx="-74.100601"
           sodipodi:cy="63.94165"
           sodipodi:r1="49.743385"
           sodipodi:r2="55.100243"
           sodipodi:arg1="0.50126426"
           sodipodi:arg2="0.73030559"
           inkscape:flatsided="false"
           inkscape:rounded="0"
           inkscape:randomized="0"
           d="m -30.476859,87.845071 -2.575683,12.853799 -39.937157,12.97376 -12.419562,4.19629 -31.204179,-28.099711 -9.84388,-8.657508 8.73298,-41.073471 2.57568,-12.853804 39.937157,-12.973755 12.419562,-4.196295 31.20418,28.099715 9.84388,8.657509 z"
           transform="matrix(0.02813031,0.11060775,-0.11060775,0.02813031,63.142339,217.29411)" />
        <path
           transform="matrix(0.0286088,0.11048495,-0.11048495,0.0286088,65.21507,255.92581)"
           d="m -30.476859,87.845071 -2.575683,12.853799 -39.937157,12.97376 -12.419562,4.19629 -31.204179,-28.099711 -9.84388,-8.657508 8.73298,-41.073471 2.57568,-12.853804 39.937157,-12.973755 12.419562,-4.196295 31.20418,28.099715 9.84388,8.657509 z"
           inkscape:randomized="0"
           inkscape:rounded="0"
           inkscape:flatsided="false"
           sodipodi:arg2="0.73030559"
           sodipodi:arg1="0.50126426"
           sodipodi:r2="55.100243"
           sodipodi:r1="49.743385"
           sodipodi:cy="63.94165"
           sodipodi:cx="-74.100601"
           sodipodi:sides="6"
           id="path888"
           style="fill:#ffffff;fill-opacity:1;stroke:#ffffff;stroke-width:10.83120823;stroke-miterlimit:4;stroke-dasharray:none"
           sodipodi:type="star" />
      </g>
    </g>
  </g>
  <g
     inkscape:groupmode="layer"
     id="layer2"
     inkscape:label="hide"
     style="display:none"
     sodipodi:insensitive="true"
     transform="translate(0,-66.145839)">
    <path
       transform="matrix(0.0459841,0.21990873,-0.21990873,0.0459841,83.880335,78.9184)"
       d="m -30.476859,87.845071 -2.575683,12.853799 -39.937157,12.97376 -12.419562,4.19629 -31.204179,-28.099711 -9.84388,-8.657508 8.73298,-41.073471 2.57568,-12.853804 39.937157,-12.973755 12.419562,-4.196295 31.20418,28.099715 9.84388,8.657509 z"
       inkscape:randomized="0"
       inkscape:rounded="0"
       inkscape:flatsided="false"
       sodipodi:arg2="0.73030559"
       sodipodi:arg1="0.50126426"
       sodipodi:r2="55.100243"
       sodipodi:r1="49.743385"
       sodipodi:cy="63.94165"
       sodipodi:cx="-74.100601"
       sodipodi:sides="6"
       id="path854"
       style="fill:none;fill-opacity:1;stroke:#000000;stroke-width:10.83120823;stroke-miterlimit:4;stroke-dasharray:none"
       sodipodi:type="star" />
  </g>
</svg>
